<svg width="64" height="64" viewBox="0 0 64 64" fill="none" xmlns="http://www.w3.org/2000/svg">
  <!-- Shield shape for "Aegis" -->
  <path d="M32 4 L8 16 L8 36 C8 48 20 58 32 60 C44 58 56 48 56 36 L56 16 L32 4 Z" 
        fill="#2563eb" stroke="#1e40af" stroke-width="2"/>
  
  <!-- File system icon inside shield -->
  <g transform="translate(16, 18)">
    <!-- Folder -->
    <rect x="2" y="4" width="28" height="20" rx="2" fill="#ffffff" opacity="0.9"/>
    <path d="M2 4 L2 8 L14 8 L16 6 L30 6 L30 4 Z" fill="#ffffff"/>
    
    <!-- Files inside -->
    <rect x="6" y="10" width="8" height="10" rx="1" fill="#1e40af" opacity="0.8"/>
    <rect x="18" y="10" width="8" height="10" rx="1" fill="#1e40af" opacity="0.8"/>
    
    <!-- Lock symbol for security -->
    <circle cx="16" cy="28" r="5" fill="#fbbf24" stroke="#f59e0b" stroke-width="1"/>
    <rect x="14" y="26" width="4" height="4" fill="#f59e0b"/>
    <path d="M14 26 L14 24 A2 2 0 0 1 18 24 L18 26" fill="none" stroke="#f59e0b" stroke-width="1"/>
  </g>
</svg> 